<?xml version="1.0" standalone="no"?>
<!DOCTYPE svg PUBLIC "-//W3C//DTD SVG 20010904//EN"
 "http://www.w3.org/TR/2001/REC-SVG-20010904/DTD/svg10.dtd">
<svg version="1.0" xmlns="http://www.w3.org/2000/svg"
 width="512.000000pt" height="512.000000pt" viewBox="0 0 512.000000 512.000000"
 preserveAspectRatio="xMidYMid meet">

<g transform="translate(0.000000,512.000000) scale(0.100000,-0.100000)"
fill="#000000" stroke="none">
<path d="M590 4530 c-11 -11 -20 -33 -20 -50 0 -17 9 -39 20 -50 19 -19 33
-20 290 -20 257 0 271 1 290 20 26 26 26 74 0 100 -19 19 -33 20 -290 20 -257
0 -271 -1 -290 -20z"/>
<path d="M590 4210 c-11 -11 -20 -33 -20 -50 0 -17 9 -39 20 -50 19 -19 33
-20 530 -20 497 0 511 1 530 20 11 11 20 33 20 50 0 17 -9 39 -20 50 -19 19
-33 20 -530 20 -497 0 -511 -1 -530 -20z"/>
<path d="M2015 3666 c-55 -25 -86 -68 -94 -131 -8 -60 -20 -75 -60 -75 -14 0
-54 -7 -90 -16 -176 -43 -341 -175 -419 -334 -61 -123 -75 -192 -70 -325 8
-177 63 -307 186 -431 82 -83 172 -135 317 -184 65 -22 122 -46 127 -52 9 -15
11 -738 2 -762 -17 -43 -162 12 -229 86 -67 73 -87 134 -94 279 -8 148 -17
169 -94 207 -57 29 -112 23 -158 -15 -52 -44 -59 -69 -59 -210 0 -152 13 -213
72 -333 77 -159 243 -291 419 -334 36 -9 77 -16 91 -16 37 0 58 -25 58 -69 0
-43 29 -92 73 -125 39 -29 125 -29 164 0 45 34 73 82 73 128 0 50 13 66 55 66
53 0 146 28 233 71 145 71 272 220 323 379 29 89 36 252 15 342 -41 174 -163
337 -318 426 -29 17 -108 49 -176 72 -98 34 -123 47 -127 64 -3 11 -4 188 -3
391 l3 370 34 3 c46 5 149 -47 196 -99 66 -73 86 -133 92 -272 6 -132 15 -160
62 -200 46 -38 101 -44 158 -15 82 41 88 56 88 231 0 129 -3 162 -22 222 -52
163 -177 312 -324 383 -88 44 -181 72 -235 72 -40 0 -50 13 -57 74 -11 106
-121 175 -212 132z m-101 -542 c3 -9 6 -154 6 -324 0 -354 3 -343 -79 -315
-247 82 -326 365 -155 555 66 73 212 127 228 84z m444 -1149 c168 -76 244
-285 163 -449 -17 -35 -50 -81 -72 -101 -54 -48 -139 -87 -181 -83 l-33 3 -3
319 c-2 235 1 322 10 333 14 17 41 12 116 -22z"/>
</g>
</svg>
